<svg width="156" height="42" viewBox="0 0 156 42" fill="none" xmlns="http://www.w3.org/2000/svg">
<path d="M120.14 38.9913V15.1498C120.14 13.2921 119.65 12.0334 118.735 11.1119C117.757 10.1213 116.314 9.58939 114.577 9.58939C114.445 9.58939 114.278 9.58939 114.15 9.60614V33.4456C114.15 35.2906 114.636 36.5535 115.555 37.475C116.521 38.4572 117.976 39.0038 119.7 39.0038C119.836 39.0038 119.997 39.0038 120.14 38.9913ZM120.686 3.81331C120.686 1.86561 119.099 0.282318 117.143 0.282318C115.191 0.282318 113.604 1.86561 113.604 3.81331C113.604 5.77357 115.191 7.36524 117.143 7.36524C119.099 7.36524 120.686 5.77357 120.686 3.81331ZM102.734 27.4391V33.4456C102.734 35.2906 103.22 36.5535 104.144 37.475C105.113 38.4572 106.573 39.0038 108.297 39.0038C108.437 39.0038 108.594 39.0038 108.732 38.9913V26.1804C108.732 20.6682 107.228 16.9613 104.554 14.0733C101.798 11.1099 97.6806 9.39671 92.9098 9.39671C83.7577 9.39671 77.4182 16.0985 77.4182 24.8254C77.4182 33.4016 83.2885 39.1232 90.9034 39.1232C96.7737 39.1232 100.301 35.6299 100.301 31.5377C100.301 30.0088 99.8209 28.3711 98.7759 26.8129C97.9298 31.2151 95.4962 33.6361 91.5757 33.6361C87.3892 33.6361 83.7074 30.4612 83.7074 24.6746C83.7074 18.9865 87.3976 15.0953 92.9265 15.0953C95.6952 15.0953 97.9214 16.0608 99.601 17.7153C101.584 19.6797 102.734 22.6851 102.734 27.4391ZM149.529 31.1167C149.462 31.1167 149.406 31.079 149.347 31.0015C145.045 25.4014 137.152 15.0806 135.437 12.8293C133.627 10.4732 132.209 9.69829 130.337 9.69829C128.953 9.69829 127.834 10.2072 127.066 11.024C126.207 11.9434 125.774 13.3654 125.774 14.9822V33.4456C125.774 35.2906 126.251 36.5535 127.179 37.475C128.153 38.4572 129.545 39.0038 131.229 39.0038C131.361 39.0038 131.449 39.0038 131.568 38.9913V17.8221C131.568 17.6692 131.635 17.5854 131.738 17.5854C131.813 17.5854 131.862 17.6189 131.92 17.709C134.444 20.9887 144.013 33.5063 145.847 35.8603C147.659 38.2143 149.068 39.0059 150.93 39.0059C152.323 39.0059 153.445 38.5033 154.206 37.6886C155.06 36.765 155.5 35.3598 155.5 33.7304V15.2608C155.5 13.4157 155.01 12.1507 154.091 11.2146C153.113 10.2407 151.732 9.69829 150.032 9.69829C149.912 9.69829 149.824 9.69829 149.697 9.70667V30.8884C149.699 31.0413 149.628 31.1167 149.529 31.1167ZM55.2417 33.3262C55.005 33.3262 54.8689 33.2466 54.8689 33.0895C54.8689 33.0058 54.9359 32.8989 55.072 32.7942C56.9129 31.3031 69.0913 21.4787 70.9489 19.952C74.1783 17.353 74.8569 16.0838 74.8569 14.2366C74.8569 13.0848 74.3187 11.9769 73.5061 11.2983C72.528 10.469 71.0683 10.0208 68.7059 10.0208H47.9598C47.9598 10.1213 47.9598 10.2407 47.9598 10.3517C47.9598 11.4261 48.1923 12.5947 48.7263 13.3654C49.564 14.5675 51.1473 15.2608 53.2856 15.2608H66.9027C67.1436 15.2608 67.2755 15.332 67.2755 15.4555C67.2755 15.5623 67.2169 15.6335 67.064 15.7466C65.1372 17.309 53.895 26.3794 51.0929 28.6182C47.8551 31.2172 47.2121 32.5115 47.2121 34.3545C47.2121 35.498 47.7546 36.6059 48.5671 37.2802C49.5452 38.1138 51.0091 38.5724 53.3798 38.5724H75.0768C75.0768 38.4845 75.0768 38.4321 75.0768 38.3651C75.0768 36.8237 74.6412 35.5001 73.7176 34.6603C72.66 33.6822 71.2882 33.3262 68.7185 33.3262H55.2417Z" fill="black"/>
<path d="M33.6075 15.7299C33.6075 12.2743 30.9499 9.66059 27.1571 9.95169C19.1087 10.5695 18.0699 19.7237 23.3099 20.3101C28.7886 20.9216 30.7488 15.1288 30.8535 14.8042C30.8535 14.8021 30.8577 14.8021 30.8577 14.8042C30.8703 15.1979 31.1614 23.1688 23.0334 23.1688C18.8092 23.1688 16.6353 19.7174 16.6353 16.7247C16.6353 12.291 20.9496 7.88043 27.0335 7.64587C30.4431 7.51393 32.6881 8.32024 34.4474 10.0794C38.0328 13.6649 37.0003 20.3876 34.0976 23.7071C29.4922 28.9763 23.0167 30.3146 16.9851 27.6108C10.9535 24.905 8.7901 17.0744 12.4467 10.5213C13.7913 8.11081 18.6752 2.74102 27.067 2.74102C37.7207 2.74102 43.124 10.2931 42.1481 19.1645C41.4004 25.9626 37.2705 30.8863 35.3563 32.966C26.9456 42.1055 14.5871 43.9275 6.80051 39.1756C2.51558 36.5598 0.0233603 31.8644 0.576255 26.5511C1.05166 30.39 2.96376 33.7094 6.14709 35.8812C12.5117 40.2227 23.157 40.8196 30.8494 32.3586C23.1172 38.1347 14.0824 38.0467 7.91468 34.0278C2.25379 30.3397 0.697725 22.9782 3.46848 15.6964C2.07787 22.1887 4.31249 28.2056 9.22152 31.3429C16.8741 36.231 28.0241 33.4204 35.0505 25.5479C37.4443 22.8651 38.8182 19.2462 38.7742 15.9435C38.6988 10.4376 34.8641 5.49502 27.1173 5.49502C19.1653 5.49502 13.7033 11.6418 13.7033 16.7582C13.7033 22.4379 17.6008 25.6778 22.6858 25.6778C27.7142 25.6736 33.6075 22.5028 33.6075 15.7299Z" fill="black"/>
</svg>
